<svg xmlns="http://www.w3.org/2000/svg" viewBox="0 0 380 416" font-family="-apple-system, 'Segoe UI', system-ui, sans-serif">
  <rect width="380" height="416" rx="14" fill="#2a2927"/>
  <rect x="12" y="12" width="356" height="392" rx="14" fill="#323130" stroke="#46453f"/>

  <!-- header -->
  <circle cx="45" cy="46" r="17" fill="#213a57"/>
  <g transform="translate(36,37)" fill="none" stroke="#8fc0f4" stroke-width="1.6" stroke-linecap="round" stroke-linejoin="round">
    <ellipse cx="9" cy="4.5" rx="6" ry="2.2"/><path d="M3 4.5v4.5c0 1.2 2.7 2.2 6 2.2s6-1 6-2.2V4.5"/><path d="M3 9v4.5c0 1.2 2.7 2.2 6 2.2s6-1 6-2.2V9"/>
  </g>
  <text x="72" y="42" fill="#f4f3ee" font-size="15" font-weight="500">unas</text>
  <text x="72" y="59" fill="#a9a7a0" font-size="12">/Volumes/unas/Photos</text>
  <circle cx="344" cy="46" r="15" fill="none" stroke="#55534d"/>
  <g transform="translate(337,39)" fill="none" stroke="#a9a7a0" stroke-width="1.4"><circle cx="7" cy="7" r="2.3"/><path d="M7 1.5v2M7 10.5v2M1.5 7h2M10.5 7h2M3 3l1.4 1.4M9.6 9.6l1.4 1.4M11 3L9.6 4.4M4.4 9.6L3 11"/></g>

  <line x1="28" y1="76" x2="352" y2="76" stroke="#46453f"/>

  <!-- status pill -->
  <rect x="28" y="88" width="324" height="52" rx="9" fill="#213a57"/>
  <circle cx="46" cy="114" r="4.5" fill="#5cc46b"/>
  <text x="60" y="110" fill="#b6d6fb" font-size="14" font-weight="500">Serving</text>
  <text x="60" y="128" fill="#8fc0f4" font-size="12" opacity="0.9">mounted · writable · up 3h 12m</text>
  <text x="340" y="114" fill="#8fc0f4" font-size="12" text-anchor="end" font-family="ui-monospace, Menlo, monospace">:8088</text>

  <!-- base url -->
  <text x="28" y="162" fill="#84827c" font-size="11" letter-spacing="0.5">BASE URL</text>
  <rect x="28" y="170" width="324" height="36" rx="8" fill="#3a3937"/>
  <text x="40" y="192" fill="#f4f3ee" font-size="13" font-family="ui-monospace, Menlo, monospace">http://127.0.0.1:8088/v1/fs/</text>
  <rect x="318" y="176" width="24" height="24" rx="6" fill="none" stroke="#55534d"/>
  <g transform="translate(324,182)" fill="none" stroke="#a9a7a0" stroke-width="1.4" stroke-linejoin="round"><rect x="4.5" y="4.5" width="7" height="7" rx="1.4"/><path d="M2 8V2.5A1 1 0 0 1 3 1.5h5.5"/></g>

  <!-- token -->
  <text x="28" y="228" fill="#84827c" font-size="11" letter-spacing="0.5">BEARER TOKEN</text>
  <rect x="28" y="236" width="324" height="36" rx="8" fill="#3a3937"/>
  <text x="40" y="258" fill="#a9a7a0" font-size="13" font-family="ui-monospace, Menlo, monospace" letter-spacing="1">•••••••••••• a3f1</text>
  <rect x="288" y="242" width="24" height="24" rx="6" fill="none" stroke="#55534d"/>
  <g transform="translate(294,248)" fill="none" stroke="#a9a7a0" stroke-width="1.4" stroke-linecap="round" stroke-linejoin="round"><path d="M1 6s2.2-4 6-4 6 4 6 4-2.2 4-6 4-6-4-6-4Z"/><circle cx="7" cy="6" r="1.8"/></g>
  <rect x="318" y="242" width="24" height="24" rx="6" fill="none" stroke="#55534d"/>
  <g transform="translate(324,248)" fill="none" stroke="#a9a7a0" stroke-width="1.4" stroke-linejoin="round"><rect x="4.5" y="4.5" width="7" height="7" rx="1.4"/><path d="M2 8V2.5A1 1 0 0 1 3 1.5h5.5"/></g>

  <!-- capacity -->
  <text x="28" y="296" fill="#a9a7a0" font-size="12">Capacity</text>
  <text x="352" y="296" fill="#a9a7a0" font-size="12" text-anchor="end">763 GB free · 995 GB total</text>
  <rect x="28" y="304" width="324" height="6" rx="3" fill="#3a3937"/>
  <rect x="28" y="304" width="75" height="6" rx="3" fill="#8fc0f4"/>

  <!-- actions -->
  <rect x="28" y="322" width="156" height="38" rx="9" fill="none" stroke="#55534d"/>
  <g transform="translate(64,334)" fill="none" stroke="#f4f3ee" stroke-width="1.4" stroke-linejoin="round"><path d="M0 2a1.5 1.5 0 0 1 1.5-1.5H4l1.5 1.5H13a1.5 1.5 0 0 1 1.5 1.5v6A1.5 1.5 0 0 1 13 11H1.5A1.5 1.5 0 0 1 0 9.5Z"/></g>
  <text x="106" y="346" fill="#f4f3ee" font-size="13" text-anchor="middle">Open share</text>
  <rect x="196" y="322" width="156" height="38" rx="9" fill="none" stroke="#55534d"/>
  <g transform="translate(232,334)" fill="none" stroke="#f4f3ee" stroke-width="1.5" stroke-linecap="round" stroke-linejoin="round"><path d="M0 11l5-4.5L0 2"/><path d="M6.5 12H13"/></g>
  <text x="278" y="346" fill="#f4f3ee" font-size="13" text-anchor="middle">Copy curl</text>

  <!-- footer -->
  <line x1="28" y1="376" x2="352" y2="376" stroke="#46453f"/>
  <text x="28" y="396" fill="#84827c" font-size="12">unas/1.0 · 127.0.0.1</text>
  <g transform="translate(300,388)" fill="none" stroke="#5cc46b" stroke-width="1.5" stroke-linecap="round" stroke-linejoin="round"><circle cx="6" cy="6" r="5.2"/><path d="M3.6 6.2l1.6 1.6 3-3.4"/></g>
  <text x="352" y="396" fill="#84827c" font-size="12" text-anchor="end">healthz ok</text>
</svg>
